<?xml version="1.0" encoding="UTF-8"?>
<svg width="20px" height="21px" viewBox="0 0 20 21" version="1.1" xmlns="http://www.w3.org/2000/svg" xmlns:xlink="http://www.w3.org/1999/xlink">
    <title>flag</title>
    <g id="首页" stroke="none" stroke-width="1" fill="none" fill-rule="evenodd">
        <g id="智慧社区" transform="translate(-140, -104)" fill="#FFFFFF" fill-rule="nonzero">
            <g id="flag" transform="translate(140, 104.1475)">
                <rect id="矩形" opacity="0" x="0" y="0" width="20" height="20"></rect>
                <path d="M17.1875,5.95703125 L12.1875,5.95703125 L12.1875,3.75 C12.1875,3.40429688 11.9082031,3.125 11.5625,3.125 L3.59375,3.125 L3.59375,2.34375 C3.59375,2.2578125 3.5234375,2.1875 3.4375,2.1875 L2.34375,2.1875 C2.2578125,2.1875 2.1875,2.2578125 2.1875,2.34375 L2.1875,17.65625 C2.1875,17.7421875 2.2578125,17.8125 2.34375,17.8125 L3.4375,17.8125 C3.5234375,17.8125 3.59375,17.7421875 3.59375,17.65625 L3.59375,12.5 L8.4375,12.5 L8.4375,14.7070312 C8.4375,15.0527344 8.71679688,15.3320312 9.0625,15.3320312 L17.1875,15.3320312 C17.5332031,15.3320312 17.8125,15.0527344 17.8125,14.7070312 L17.8125,6.58203125 C17.8125,6.23632812 17.5332031,5.95703125 17.1875,5.95703125 Z M3.59375,11.09375 L3.59375,4.53125 L10.78125,4.53125 L10.78125,11.09375 L3.59375,11.09375 Z M16.40625,13.9257812 L9.84375,13.9257812 L9.84375,12.5 L12.03125,12.5 C12.1171875,12.5 12.1875,12.4296875 12.1875,12.34375 L12.1875,7.36328125 L16.40625,7.36328125 L16.40625,13.9257812 Z" id="形状"></path>
            </g>
        </g>
    </g>
</svg>