<?xml version="1.0" encoding="UTF-8"?>
<svg width="20px" height="20px" viewBox="0 0 20 20" version="1.1" xmlns="http://www.w3.org/2000/svg" xmlns:xlink="http://www.w3.org/1999/xlink">
    <title>shopping</title>
    <g id="本地" stroke="none" stroke-width="1" fill="none" fill-rule="evenodd">
        <g id="订单详情" transform="translate(-254.000000, -984.147500)" fill="#fff" fill-rule="nonzero">
            <g id="编组-3" transform="translate(254.000000, 982.000000)">
                <g id="shopping" transform="translate(0.000000, 2.147500)">
                    <rect id="矩形" opacity="0" x="0" y="0" width="20" height="20"></rect>
                    <path d="M16.25,6.09375 L13.59375,6.09375 L13.59375,5.78125 C13.59375,3.796875 11.984375,2.1875 10,2.1875 C8.015625,2.1875 6.40625,3.796875 6.40625,5.78125 L6.40625,6.09375 L3.75,6.09375 C3.40429688,6.09375 3.125,6.37304688 3.125,6.71875 L3.125,17.1875 C3.125,17.5332031 3.40429688,17.8125 3.75,17.8125 L16.25,17.8125 C16.5957031,17.8125 16.875,17.5332031 16.875,17.1875 L16.875,6.71875 C16.875,6.37304688 16.5957031,6.09375 16.25,6.09375 Z M7.8125,5.78125 C7.8125,4.57226562 8.79101562,3.59375 10,3.59375 C11.2089844,3.59375 12.1875,4.57226562 12.1875,5.78125 L12.1875,6.09375 L7.8125,6.09375 L7.8125,5.78125 Z M15.46875,16.40625 L4.53125,16.40625 L4.53125,7.5 L6.40625,7.5 L6.40625,9.21875 C6.40625,9.3046875 6.4765625,9.375 6.5625,9.375 L7.65625,9.375 C7.7421875,9.375 7.8125,9.3046875 7.8125,9.21875 L7.8125,7.5 L12.1875,7.5 L12.1875,9.21875 C12.1875,9.3046875 12.2578125,9.375 12.34375,9.375 L13.4375,9.375 C13.5234375,9.375 13.59375,9.3046875 13.59375,9.21875 L13.59375,7.5 L15.46875,7.5 L15.46875,16.40625 Z" id="形状"></path>
                </g>
            </g>
        </g>
    </g>
</svg>
