<?xml version="1.0" standalone="no"?><!DOCTYPE svg PUBLIC "-//W3C//DTD SVG 1.1//EN" "http://www.w3.org/Graphics/SVG/1.1/DTD/svg11.dtd"><svg t="1726718317942" class="icon" viewBox="0 0 1024 1024" version="1.1" xmlns="http://www.w3.org/2000/svg" p-id="13765" xmlns:xlink="http://www.w3.org/1999/xlink" width="200" height="200"><path d="M601.879542 615.183034l40.164768 0 0 39.908942-40.164768 0 0-39.908942Z" fill="#1296db" p-id="13766"></path><path d="M701.140243 615.183034l40.164768 0 0 39.908942-40.164768 0 0-39.908942Z" fill="#1296db" p-id="13767"></path><path d="M511.999488 63.645552c-246.99951 0-447.230857 200.231347-447.230857 447.230857 0 246.998487 200.23237 447.231881 447.230857 447.231881 246.99951 0 447.229834-200.233394 447.229834-447.231881C959.229323 263.876899 758.998999 63.645552 511.999488 63.645552zM789.144576 682.721243c0 0-1.87572 36.32737-37.862329 41.443901L276.297278 724.165144c0 0-28.481681-1.705851-34.109866-38.544875l-1.056052-218.816634 548.013215 0L789.144576 682.721243zM789.144576 329.424778l0 67.026556-548.013215-0.271176 1.056052-68.801992c5.884011-29.420053 34.280758-30.187533 34.280758-30.187533l473.279117 0C789.656229 301.283858 789.144576 329.424778 789.144576 329.424778z" fill="#1296db" p-id="13768"></path><path d="M651.254066 615.183034l40.164768 0 0 39.908942-40.164768 0 0-39.908942Z" fill="#1296db" p-id="13769"></path></svg>