<svg width="20" height="20" viewBox="0 0 20 20" fill="none" xmlns="http://www.w3.org/2000/svg">
  <g id="Group 2319">
    <g id="&#240;&#159;&#166;&#134; icon &#34;ticket&#34;">
      <path id="Vector"
        d="M1.66675 5.2381V7.14286C2.40346 7.14286 3.11 7.44388 3.63093 7.9797C4.15187 8.51552 4.44453 9.24224 4.44453 10C4.44453 10.7578 4.15187 11.4845 3.63093 12.0203C3.11 12.5561 2.40346 12.8571 1.66675 12.8571V14.7619C1.66675 15.8095 2.50008 16.6667 3.5186 16.6667H16.4816C16.9727 16.6667 17.4437 16.466 17.791 16.1088C18.1383 15.7516 18.3334 15.2671 18.3334 14.7619V12.8571C17.5967 12.8571 16.8902 12.5561 16.3692 12.0203C15.8483 11.4845 15.5556 10.7578 15.5556 10C15.5556 9.24224 15.8483 8.51552 16.3692 7.9797C16.8902 7.44388 17.5967 7.14286 18.3334 7.14286V5.2381C18.3334 4.73292 18.1383 4.24844 17.791 3.89123C17.4437 3.53402 16.9727 3.33334 16.4816 3.33334H3.5186C3.02746 3.33334 2.55643 3.53402 2.20914 3.89123C1.86185 4.24844 1.66675 4.73292 1.66675 5.2381Z"
        stroke="#48d300" stroke-width="1.5" stroke-linecap="round" stroke-linejoin="round" />
      <path id="Vector_2" d="M10.9258 3.33334V5.2381" stroke="#48d300" stroke-width="1.5" stroke-linecap="round"
        stroke-linejoin="round" />
      <path id="Vector_3" d="M10.9258 14.7619V16.6667" stroke="#48d300" stroke-width="1.5" stroke-linecap="round"
        stroke-linejoin="round" />
      <path id="Vector_4" d="M10.9258 9.04762V10.9524" stroke="#48d300" stroke-width="1.5" stroke-linecap="round"
        stroke-linejoin="round" />
    </g>
  </g>
</svg>