<?xml version="1.0" encoding="UTF-8"?>
<svg width="20px" height="20px" viewBox="0 0 20 20" version="1.1" xmlns="http://www.w3.org/2000/svg"
    xmlns:xlink="http://www.w3.org/1999/xlink">
    <title>YUAN</title>
    <g id="生态" stroke="none" stroke-width="1" fill="none" fill-rule="evenodd">
        <g id="支付" transform="translate(-140.000000, -720.147500)" fill="#2B2B2B" fill-rule="nonzero">
            <g id="编组-2" transform="translate(140.000000, 718.000000)">
                <g id="YUAN" transform="translate(0.000000, 2.147500)">
                    <rect id="矩形" opacity="0" x="0" y="0" width="20" height="20"></rect>
                    <path
                        d="M10,1.25 C5.16796875,1.25 1.25,5.16796875 1.25,10 C1.25,14.8320312 5.16796875,18.75 10,18.75 C14.8320312,18.75 18.75,14.8320312 18.75,10 C18.75,5.16796875 14.8320312,1.25 10,1.25 Z M10,17.265625 C5.98828125,17.265625 2.734375,14.0117187 2.734375,10 C2.734375,5.98828125 5.98828125,2.734375 10,2.734375 C14.0117187,2.734375 17.265625,5.98828125 17.265625,10 C17.265625,14.0117187 14.0117187,17.265625 10,17.265625 Z M13.1171875,5.83984375 L11.9550781,5.83984375 C11.8964844,5.83984375 11.8417969,5.87304688 11.8164062,5.92578125 L10.046875,9.44140625 L9.98046875,9.44140625 L8.2109375,5.92578125 C8.18359375,5.87304688 8.13085937,5.83984375 8.07226562,5.83984375 L6.88671875,5.83984375 C6.86132812,5.83984375 6.8359375,5.84570312 6.8125,5.859375 C6.73632812,5.90039062 6.70898437,5.99609375 6.75,6.07226562 L8.92578125,10.0722656 L7.7265625,10.0722656 C7.640625,10.0722656 7.5703125,10.1425781 7.5703125,10.2285156 L7.5703125,10.8125 C7.5703125,10.8984375 7.640625,10.96875 7.7265625,10.96875 L9.32226562,10.96875 L9.32226562,11.7773438 L7.7265625,11.7773438 C7.640625,11.7773438 7.5703125,11.8476562 7.5703125,11.9335938 L7.5703125,12.5175781 C7.5703125,12.6035156 7.640625,12.6738281 7.7265625,12.6738281 L9.32226562,12.6738281 L9.32226562,14.0039062 C9.32226562,14.0898438 9.39257812,14.1601562 9.47851562,14.1601562 L10.5390625,14.1601562 C10.625,14.1601562 10.6953125,14.0898438 10.6953125,14.0039062 L10.6953125,12.6738281 L12.296875,12.6738281 C12.3828125,12.6738281 12.453125,12.6035156 12.453125,12.5175781 L12.453125,11.9335938 C12.453125,11.8476562 12.3828125,11.7773438 12.296875,11.7773438 L10.6953125,11.7773438 L10.6953125,10.9667969 L12.296875,10.9667969 C12.3828125,10.9667969 12.453125,10.8964844 12.453125,10.8105469 L12.453125,10.2265625 C12.453125,10.140625 12.3828125,10.0703125 12.296875,10.0703125 L11.0859375,10.0703125 L13.2558594,6.0703125 C13.2675781,6.046875 13.2753906,6.02148438 13.2753906,5.99609375 C13.2734375,5.91015625 13.203125,5.83984375 13.1171875,5.83984375 Z"
                        id="形状"></path>
                </g>
            </g>
        </g>
    </g>
</svg>
