<svg xmlns="http://www.w3.org/2000/svg" xmlns:xlink="http://www.w3.org/1999/xlink" width="144px" height="144px">
  <path fill-rule="evenodd" fill="#f5f5f5"
    d="M-0.001,-0.001 L143.999,-0.001 L143.999,143.999 L-0.001,143.999 L-0.001,-0.001 Z" />
  <path fill-rule="evenodd" fill="#48d300"
    d="M73.599,37.599 C75.366,37.599 76.799,39.032 76.799,40.799 L76.799,82.398 C76.799,84.167 75.366,85.599 73.599,85.599 C71.831,85.599 70.399,84.167 70.399,82.398 L70.399,40.799 C70.399,39.032 71.831,37.599 73.599,37.599 Z" />
  <path fill-rule="evenodd" fill="#48d300"
    d="M52.799,58.399 L94.399,58.399 C96.165,58.399 97.599,59.832 97.599,61.599 C97.599,63.367 96.165,64.799 94.399,64.799 L52.799,64.799 C51.031,64.799 49.599,63.367 49.599,61.599 C49.599,59.832 51.031,58.399 52.799,58.399 Z" />
  <text kerning="auto" font-family="Myriad Pro" fill="#333"
    transform="matrix( 0.8, 0, 0, 0.8,43.3252000000002, 118.1876)" font-size="20px">
    <tspan font-size="20px" font-family="PingFang SC" fill="#333">&#28155;&#21152;&#22270;&#29255;</tspan>
  </text>
</svg>