<?xml version="1.0" encoding="UTF-8"?>
<svg width="14px" height="15px" viewBox="0 0 14 15" version="1.1" xmlns="http://www.w3.org/2000/svg" xmlns:xlink="http://www.w3.org/1999/xlink">
    <title>safety certificate</title>
    <g id="首页" stroke="none" stroke-width="1" fill="none" fill-rule="evenodd">
        <g id="我的" transform="translate(-32, -399)" fill="#424242" fill-rule="nonzero">
            <g id="safety-certificate" transform="translate(32, 399.3435)">
                <rect id="矩形" opacity="0" x="0" y="0" width="14" height="14"></rect>
                <path d="M11.8521484,2.32285156 L7.20644531,0.739648437 C7.15039063,0.720507813 7.07519531,0.7109375 7,0.7109375 C6.92480469,0.7109375 6.84960938,0.720507813 6.79355469,0.739648437 L2.14785156,2.32285156 C2.034375,2.36113281 1.94140625,2.49238281 1.94140625,2.61269531 L1.94140625,9.20800781 C1.94140625,9.32832031 2.01933594,9.48691406 2.11367188,9.56210938 L6.82636719,13.234375 C6.87421875,13.2712891 6.93574219,13.2904297 6.99863281,13.2904297 C7.06152344,13.2904297 7.12441406,13.2712891 7.17089844,13.234375 L11.8835938,9.56210938 C11.9779297,9.48828125 12.0559182,9.3296875 12.0559182,9.20800781 L12.0559182,2.61269531 C12.0585938,2.49238281 11.965625,2.3625 11.8521484,2.32285156 Z M11.0742188,8.94550781 L7,12.1201172 L2.92578125,8.94550781 L2.92578125,3.09941406 L7,1.71035156 L11.0742188,3.09941406 L11.0742188,8.94550781 Z M5.52617188,6.19746094 C5.48515625,6.14140625 5.41953125,6.10722656 5.3484375,6.10722656 L4.59375,6.10722656 C4.50488281,6.10722656 4.45292969,6.20839844 4.50488281,6.28085937 L6.23300781,8.65976563 C6.32050781,8.78007812 6.50097656,8.78007812 6.58847656,8.65976563 L9.49511719,4.65800781 C9.54707031,4.58554688 9.49511719,4.484375 9.40625,4.484375 L8.6515625,4.484375 C8.58183594,4.484375 8.51484375,4.51855469 8.47382813,4.57460937 L6.41074219,7.415625 L5.52617188,6.19746094 Z" id="形状"></path>
            </g>
        </g>
    </g>
</svg>